# xmcd
#
# Track frame offsets:
#	150
#	6194
#	13964
#	21179
#	40228
#	47179
#	56532
#	70822
#	83605
#	96294
#	107459
#	121241
#	126299
#	135421
#	153657
#	164834
#	176518
#	186233
#	197907
#	208651
#	220098
#	231870
#	241575
#	251369
#	262409
#
# Disc length: 3621 seconds
#
# Revision: 0
# Processed by: cddbd v1.5.2PL0 Copyright (c) Steve Scherf et al.
# Submitted via: audiograbber 1.83.01
#
DISCID=640e2319
DTITLE=циаммгс йаьакгс - та вояеутийа CD1
DYEAR=2016
DGENRE=гпеияытийа
TTITLE0=гпеияытисса намхиа
TTITLE1=ам гнеяес посо с' ацапы
TTITLE2=епаха фглиа
TTITLE3=та йацйекиа
TTITLE4=аимте та саяамта жтамы
TTITLE5=аккане луака
TTITLE6=то ламтики - та кежта лас еимиа кица
TTITLE7=йоккгса лафи соу - ежуцес йаи сыхгйа
TTITLE8=г ваяг соу 'дысе о хеос - г цкысситса
TTITLE9=лиа ацапг апо та пакиа
TTITLE10=стгс пяацас том амгжояо - гяхам йаи лоу еипаме
TTITLE11=лг ле йоитас ста латиа
TTITLE12=ти йяила
TTITLE13=лг ле диывмеис лама - йаицолаи йаи сицокиымы
TTITLE14=40 гпеияытиссес
TTITLE15=лаяаимолаи о йаглемос
TTITLE16=ежтаина, сулпахгсе ле
TTITLE17=то яабасайи
TTITLE18=апо лиа лецакг ацапг
TTITLE19=циа паяе ле, циа паяе ле
TTITLE20=секида цуяифы - та кежта лас еимаи кица
TTITLE21=лгкитса лоу - ахгма се баяехгйа
TTITLE22=ецы дем хекы памтяеиа
TTITLE23=тгс ламас т' омола лемеи
TTITLE24=паяапомиаяа лоу йаядиа
EXTD=
EXTT0=
EXTT1=
EXTT2=
EXTT3=
EXTT4=
EXTT5=
EXTT6=
EXTT7=
EXTT8=
EXTT9=
EXTT10=
EXTT11=
EXTT12=
EXTT13=
EXTT14=
EXTT15=
EXTT16=
EXTT17=
EXTT18=
EXTT19=
EXTT20=
EXTT21=
EXTT22=
EXTT23=
EXTT24=
PLAYORDER=
